G04 PROTEUS GERBER X2 FILE*
%TF.GenerationSoftware,Labcenter,Proteus,8.12-SP2-Build31155*%
%TF.CreationDate,2024-12-02T21:26:45+00:00*%
%TF.FileFunction,Legend,Top*%
%TF.FilePolarity,Positive*%
%TF.Part,Single*%
%TF.SameCoordinates,{72233389-6efe-41d5-b27f-3128bedcde57}*%
%FSLAX45Y45*%
%MOMM*%
G01*
%TA.AperFunction,Profile*%
%ADD71C,0.203200*%
%TA.AperFunction,Material*%
%ADD23C,0.203200*%
%ADD24C,0.508000*%
%ADD25C,0.152400*%
%TD.AperFunction*%
D71*
X+0Y+0D02*
X+1650000Y+0D01*
X+7000000Y+0D02*
X+7000000Y+6000000D01*
X+5000000Y+6000000D01*
X+5000000Y+3700000D01*
X+4800000Y+3500000D01*
X+2200000Y+3500000D01*
X+2000000Y+3700000D02*
X+2000000Y+6000000D01*
X+0Y+6000000D01*
X+0Y+0D01*
X+2000000Y+3700000D02*
X+2200000Y+3500000D01*
X+5160000Y+0D02*
X+7000000Y+0D01*
X+1750000Y-200000D02*
X+5050000Y-200000D01*
X+1650000Y+0D02*
X+1750000Y-200000D01*
X+5160000Y+0D02*
X+5050000Y-200000D01*
X+4550045Y+50000D02*
X+4549508Y+63142D01*
X+4545144Y+89427D01*
X+4536029Y+115712D01*
X+4521182Y+141997D01*
X+4498470Y+168118D01*
X+4472185Y+187898D01*
X+4445900Y+200658D01*
X+4419615Y+208108D01*
X+4393330Y+210987D01*
X+4389000Y+211045D01*
X+4227955Y+50000D02*
X+4228492Y+63142D01*
X+4232856Y+89427D01*
X+4241971Y+115712D01*
X+4256818Y+141997D01*
X+4279530Y+168118D01*
X+4305815Y+187898D01*
X+4332100Y+200658D01*
X+4358385Y+208108D01*
X+4384670Y+210987D01*
X+4389000Y+211045D01*
X+4227955Y+50000D02*
X+4228492Y+36858D01*
X+4232856Y+10573D01*
X+4241971Y-15712D01*
X+4256818Y-41997D01*
X+4279530Y-68118D01*
X+4305815Y-87898D01*
X+4332100Y-100658D01*
X+4358385Y-108108D01*
X+4384670Y-110987D01*
X+4389000Y-111045D01*
X+4550045Y+50000D02*
X+4549508Y+36858D01*
X+4545144Y+10573D01*
X+4536029Y-15712D01*
X+4521182Y-41997D01*
X+4498470Y-68118D01*
X+4472185Y-87898D01*
X+4445900Y-100658D01*
X+4419615Y-108108D01*
X+4393330Y-110987D01*
X+4389000Y-111045D01*
X+6074045Y+5130000D02*
X+6073508Y+5143142D01*
X+6069144Y+5169427D01*
X+6060029Y+5195712D01*
X+6045182Y+5221997D01*
X+6022470Y+5248118D01*
X+5996185Y+5267898D01*
X+5969900Y+5280658D01*
X+5943615Y+5288108D01*
X+5917330Y+5290987D01*
X+5913000Y+5291045D01*
X+5751955Y+5130000D02*
X+5752492Y+5143142D01*
X+5756856Y+5169427D01*
X+5765971Y+5195712D01*
X+5780818Y+5221997D01*
X+5803530Y+5248118D01*
X+5829815Y+5267898D01*
X+5856100Y+5280658D01*
X+5882385Y+5288108D01*
X+5908670Y+5290987D01*
X+5913000Y+5291045D01*
X+5751955Y+5130000D02*
X+5752492Y+5116858D01*
X+5756856Y+5090573D01*
X+5765971Y+5064288D01*
X+5780818Y+5038003D01*
X+5803530Y+5011882D01*
X+5829815Y+4992102D01*
X+5856100Y+4979342D01*
X+5882385Y+4971892D01*
X+5908670Y+4969013D01*
X+5913000Y+4968955D01*
X+6074045Y+5130000D02*
X+6073508Y+5116858D01*
X+6069144Y+5090573D01*
X+6060029Y+5064288D01*
X+6045182Y+5038003D01*
X+6022470Y+5011882D01*
X+5996185Y+4992102D01*
X+5969900Y+4979342D01*
X+5943615Y+4971892D01*
X+5917330Y+4969013D01*
X+5913000Y+4968955D01*
X+1248045Y+5257000D02*
X+1247508Y+5270142D01*
X+1243144Y+5296427D01*
X+1234029Y+5322712D01*
X+1219182Y+5348997D01*
X+1196470Y+5375118D01*
X+1170185Y+5394898D01*
X+1143900Y+5407658D01*
X+1117615Y+5415108D01*
X+1091330Y+5417987D01*
X+1087000Y+5418045D01*
X+925955Y+5257000D02*
X+926492Y+5270142D01*
X+930856Y+5296427D01*
X+939971Y+5322712D01*
X+954818Y+5348997D01*
X+977530Y+5375118D01*
X+1003815Y+5394898D01*
X+1030100Y+5407658D01*
X+1056385Y+5415108D01*
X+1082670Y+5417987D01*
X+1087000Y+5418045D01*
X+925955Y+5257000D02*
X+926492Y+5243858D01*
X+930856Y+5217573D01*
X+939971Y+5191288D01*
X+954818Y+5165003D01*
X+977530Y+5138882D01*
X+1003815Y+5119102D01*
X+1030100Y+5106342D01*
X+1056385Y+5098892D01*
X+1082670Y+5096013D01*
X+1087000Y+5095955D01*
X+1248045Y+5257000D02*
X+1247508Y+5243858D01*
X+1243144Y+5217573D01*
X+1234029Y+5191288D01*
X+1219182Y+5165003D01*
X+1196470Y+5138882D01*
X+1170185Y+5119102D01*
X+1143900Y+5106342D01*
X+1117615Y+5098892D01*
X+1091330Y+5096013D01*
X+1087000Y+5095955D01*
D23*
X+3088520Y+3177800D02*
X+3088520Y+2949200D01*
X+3058531Y+2943321D01*
X+3034346Y+2927173D01*
X+3018199Y+2902989D01*
X+3012320Y+2873000D01*
X+3088520Y+2796800D02*
X+3058531Y+2802679D01*
X+3034346Y+2818827D01*
X+3018199Y+2843011D01*
X+3012320Y+2873000D01*
X+3088520Y+2796800D02*
X+3088520Y+2568200D01*
X+1879480Y+3101600D02*
X+1879480Y+2644400D01*
X+3055500Y+3177800D02*
X+1912500Y+3177800D01*
X+3055500Y+2568200D02*
X+1912500Y+2568200D01*
X+3055500Y+3177800D02*
X+3088520Y+3177800D01*
X+3088520Y+2568200D02*
X+3055500Y+2568200D01*
X+1879480Y+2644400D02*
X+1879480Y+2568200D01*
X+1912500Y+2568200D01*
X+1912500Y+3177800D02*
X+1879480Y+3177800D01*
X+1879480Y+3101600D01*
X+3049404Y+3142240D02*
X+3049369Y+3143085D01*
X+3049082Y+3144776D01*
X+3048483Y+3146467D01*
X+3047503Y+3148158D01*
X+3046003Y+3149826D01*
X+3044312Y+3151046D01*
X+3042621Y+3151822D01*
X+3040930Y+3152259D01*
X+3039244Y+3152400D01*
X+3029084Y+3142240D02*
X+3029119Y+3143085D01*
X+3029406Y+3144776D01*
X+3030005Y+3146467D01*
X+3030985Y+3148158D01*
X+3032485Y+3149826D01*
X+3034176Y+3151046D01*
X+3035867Y+3151822D01*
X+3037558Y+3152259D01*
X+3039244Y+3152400D01*
X+3029084Y+3142240D02*
X+3029119Y+3141395D01*
X+3029406Y+3139704D01*
X+3030005Y+3138013D01*
X+3030985Y+3136322D01*
X+3032485Y+3134654D01*
X+3034176Y+3133434D01*
X+3035867Y+3132658D01*
X+3037558Y+3132221D01*
X+3039244Y+3132080D01*
X+3049404Y+3142240D02*
X+3049369Y+3141395D01*
X+3049082Y+3139704D01*
X+3048483Y+3138013D01*
X+3047503Y+3136322D01*
X+3046003Y+3134654D01*
X+3044312Y+3133434D01*
X+3042621Y+3132658D01*
X+3040930Y+3132221D01*
X+3039244Y+3132080D01*
X+3314580Y+2746000D02*
X+3390780Y+2746000D01*
X+3406020Y+2761875D01*
X+3406020Y+2825375D01*
X+3390780Y+2841250D01*
X+3314580Y+2841250D01*
X+3345060Y+2904750D02*
X+3314580Y+2936500D01*
X+3406020Y+2936500D01*
X+4927480Y+2314200D02*
X+4927480Y+2542800D01*
X+4957469Y+2548679D01*
X+4981654Y+2564827D01*
X+4997801Y+2589011D01*
X+5003680Y+2619000D01*
X+4927480Y+2695200D02*
X+4957469Y+2689321D01*
X+4981654Y+2673173D01*
X+4997801Y+2648989D01*
X+5003680Y+2619000D01*
X+4927480Y+2695200D02*
X+4927480Y+2923800D01*
X+6136520Y+2390400D02*
X+6136520Y+2847600D01*
X+4960500Y+2314200D02*
X+6103500Y+2314200D01*
X+4960500Y+2923800D02*
X+6103500Y+2923800D01*
X+4960500Y+2314200D02*
X+4927480Y+2314200D01*
X+4927480Y+2923800D02*
X+4960500Y+2923800D01*
X+6136520Y+2847600D02*
X+6136520Y+2923800D01*
X+6103500Y+2923800D01*
X+6103500Y+2314200D02*
X+6136520Y+2314200D01*
X+6136520Y+2390400D01*
X+4986916Y+2349760D02*
X+4986881Y+2350605D01*
X+4986594Y+2352296D01*
X+4985995Y+2353987D01*
X+4985015Y+2355678D01*
X+4983515Y+2357346D01*
X+4981824Y+2358566D01*
X+4980133Y+2359342D01*
X+4978442Y+2359779D01*
X+4976756Y+2359920D01*
X+4966596Y+2349760D02*
X+4966631Y+2350605D01*
X+4966918Y+2352296D01*
X+4967517Y+2353987D01*
X+4968497Y+2355678D01*
X+4969997Y+2357346D01*
X+4971688Y+2358566D01*
X+4973379Y+2359342D01*
X+4975070Y+2359779D01*
X+4976756Y+2359920D01*
X+4966596Y+2349760D02*
X+4966631Y+2348915D01*
X+4966918Y+2347224D01*
X+4967517Y+2345533D01*
X+4968497Y+2343842D01*
X+4969997Y+2342174D01*
X+4971688Y+2340954D01*
X+4973379Y+2340178D01*
X+4975070Y+2339741D01*
X+4976756Y+2339600D01*
X+4986916Y+2349760D02*
X+4986881Y+2348915D01*
X+4986594Y+2347224D01*
X+4985995Y+2345533D01*
X+4985015Y+2343842D01*
X+4983515Y+2342174D01*
X+4981824Y+2340954D01*
X+4980133Y+2340178D01*
X+4978442Y+2339741D01*
X+4976756Y+2339600D01*
X+4609980Y+2492000D02*
X+4686180Y+2492000D01*
X+4701420Y+2507875D01*
X+4701420Y+2571375D01*
X+4686180Y+2587250D01*
X+4609980Y+2587250D01*
X+4670940Y+2714250D02*
X+4670940Y+2619000D01*
X+4609980Y+2682500D01*
X+4701420Y+2682500D01*
X+3500000Y+1603000D02*
X+4516000Y+1603000D01*
X+4516000Y+2238000D01*
X+3500000Y+2238000D01*
X+3500000Y+1603000D01*
X+3500000Y+2111000D02*
X+4516000Y+2111000D01*
X+3182500Y+2278640D02*
X+3182500Y+2370080D01*
X+3261875Y+2370080D01*
X+3277750Y+2354840D01*
X+3277750Y+2339600D01*
X+3261875Y+2324360D01*
X+3182500Y+2324360D01*
X+3309500Y+2339600D02*
X+3341250Y+2370080D01*
X+3373000Y+2370080D01*
X+3404750Y+2339600D01*
X+3404750Y+2309120D01*
X+3373000Y+2278640D01*
X+3341250Y+2278640D01*
X+3309500Y+2309120D01*
X+3309500Y+2339600D01*
X+3436500Y+2370080D02*
X+3531750Y+2370080D01*
X+3484125Y+2370080D02*
X+3484125Y+2278640D01*
X+3658750Y+2278640D02*
X+3563500Y+2278640D01*
X+3563500Y+2370080D01*
X+3658750Y+2370080D01*
X+3563500Y+2324360D02*
X+3627000Y+2324360D01*
X+3690500Y+2278640D02*
X+3690500Y+2370080D01*
X+3785750Y+2278640D01*
X+3785750Y+2370080D01*
X+3817500Y+2370080D02*
X+3912750Y+2370080D01*
X+3865125Y+2370080D02*
X+3865125Y+2278640D01*
X+3960375Y+2370080D02*
X+4023875Y+2370080D01*
X+3992125Y+2370080D02*
X+3992125Y+2278640D01*
X+3960375Y+2278640D02*
X+4023875Y+2278640D01*
X+4071500Y+2339600D02*
X+4103250Y+2370080D01*
X+4135000Y+2370080D01*
X+4166750Y+2339600D01*
X+4166750Y+2309120D01*
X+4135000Y+2278640D01*
X+4103250Y+2278640D01*
X+4071500Y+2309120D01*
X+4071500Y+2339600D01*
X+4198500Y+2278640D02*
X+4198500Y+2370080D01*
X+4246125Y+2324360D01*
X+4293750Y+2370080D01*
X+4293750Y+2278640D01*
X+4420750Y+2278640D02*
X+4325500Y+2278640D01*
X+4325500Y+2370080D01*
X+4420750Y+2370080D01*
X+4325500Y+2324360D02*
X+4389000Y+2324360D01*
X+4452500Y+2370080D02*
X+4547750Y+2370080D01*
X+4500125Y+2370080D02*
X+4500125Y+2278640D01*
X+4674750Y+2278640D02*
X+4579500Y+2278640D01*
X+4579500Y+2370080D01*
X+4674750Y+2370080D01*
X+4579500Y+2324360D02*
X+4643000Y+2324360D01*
X+4706500Y+2278640D02*
X+4706500Y+2370080D01*
X+4785875Y+2370080D01*
X+4801750Y+2354840D01*
X+4801750Y+2339600D01*
X+4785875Y+2324360D01*
X+4706500Y+2324360D01*
X+4785875Y+2324360D02*
X+4801750Y+2309120D01*
X+4801750Y+2278640D01*
X+2103000Y-48000D02*
X+3500000Y-48000D01*
X+3500000Y+714000D01*
X+2103000Y+714000D01*
X+2103000Y-48000D01*
X+2611000Y+714000D02*
X+2611000Y-48000D01*
X+3601600Y+206000D02*
X+3616840Y+206000D01*
X+3632080Y+221875D01*
X+3632080Y+285375D01*
X+3616840Y+301250D01*
X+3540640Y+301250D01*
X+3540640Y+348875D02*
X+3540640Y+428250D01*
X+3555880Y+428250D01*
X+3632080Y+348875D01*
D24*
X+5043100Y+1920500D02*
X+5042969Y+1923658D01*
X+5041903Y+1929976D01*
X+5039672Y+1936294D01*
X+5036027Y+1942612D01*
X+5030452Y+1948851D01*
X+5024134Y+1953447D01*
X+5017816Y+1956380D01*
X+5011498Y+1958042D01*
X+5005180Y+1958600D01*
X+5005000Y+1958600D01*
X+4966900Y+1920500D02*
X+4967031Y+1923658D01*
X+4968097Y+1929976D01*
X+4970328Y+1936294D01*
X+4973973Y+1942612D01*
X+4979548Y+1948851D01*
X+4985866Y+1953447D01*
X+4992184Y+1956380D01*
X+4998502Y+1958042D01*
X+5004820Y+1958600D01*
X+5005000Y+1958600D01*
X+4966900Y+1920500D02*
X+4967031Y+1917342D01*
X+4968097Y+1911024D01*
X+4970328Y+1904706D01*
X+4973973Y+1898388D01*
X+4979548Y+1892149D01*
X+4985866Y+1887553D01*
X+4992184Y+1884620D01*
X+4998502Y+1882958D01*
X+5004820Y+1882400D01*
X+5005000Y+1882400D01*
X+5043100Y+1920500D02*
X+5042969Y+1917342D01*
X+5041903Y+1911024D01*
X+5039672Y+1904706D01*
X+5036027Y+1898388D01*
X+5030452Y+1892149D01*
X+5024134Y+1887553D01*
X+5017816Y+1884620D01*
X+5011498Y+1882958D01*
X+5005180Y+1882400D01*
X+5005000Y+1882400D01*
D25*
X+5874850Y+1849380D02*
X+4935150Y+1849380D01*
X+4935150Y+1805865D01*
X+4935150Y+1610620D02*
X+5874850Y+1610620D01*
X+5874850Y+1654135D01*
X+5874850Y+1805865D02*
X+5874850Y+1849380D01*
X+4935150Y+1654135D02*
X+4935150Y+1610620D01*
D23*
X+5278000Y+1511560D02*
X+5278000Y+1496320D01*
X+5293875Y+1481080D01*
X+5357375Y+1481080D01*
X+5373250Y+1496320D01*
X+5373250Y+1572520D01*
X+5436750Y+1526800D02*
X+5420875Y+1542040D01*
X+5420875Y+1557280D01*
X+5436750Y+1572520D01*
X+5484375Y+1572520D01*
X+5500250Y+1557280D01*
X+5500250Y+1542040D01*
X+5484375Y+1526800D01*
X+5436750Y+1526800D01*
X+5420875Y+1511560D01*
X+5420875Y+1496320D01*
X+5436750Y+1481080D01*
X+5484375Y+1481080D01*
X+5500250Y+1496320D01*
X+5500250Y+1511560D01*
X+5484375Y+1526800D01*
X+4135000Y+1222000D02*
X+5151000Y+1222000D01*
X+5151000Y+1476000D01*
X+4135000Y+1476000D01*
X+4135000Y+1222000D01*
X+4516000Y+1120400D02*
X+4516000Y+1105160D01*
X+4531875Y+1089920D01*
X+4595375Y+1089920D01*
X+4611250Y+1105160D01*
X+4611250Y+1181360D01*
X+4674750Y+1150880D02*
X+4706500Y+1181360D01*
X+4706500Y+1089920D01*
X+1341000Y+1603000D02*
X+1595000Y+1603000D01*
X+1595000Y+4143000D01*
X+1341000Y+4143000D01*
X+1341000Y+1603000D01*
X+1696600Y+2746000D02*
X+1711840Y+2746000D01*
X+1727080Y+2761875D01*
X+1727080Y+2825375D01*
X+1711840Y+2841250D01*
X+1635640Y+2841250D01*
X+1650880Y+2888875D02*
X+1635640Y+2904750D01*
X+1635640Y+2952375D01*
X+1650880Y+2968250D01*
X+1666120Y+2968250D01*
X+1681360Y+2952375D01*
X+1696600Y+2968250D01*
X+1711840Y+2968250D01*
X+1727080Y+2952375D01*
X+1727080Y+2904750D01*
X+1711840Y+2888875D01*
X+1681360Y+2920625D02*
X+1681360Y+2952375D01*
X+4770000Y+333000D02*
X+5786000Y+333000D01*
X+5786000Y+968000D01*
X+4770000Y+968000D01*
X+4770000Y+333000D01*
X+5786000Y+460000D02*
X+4770000Y+460000D01*
X+4579500Y+216160D02*
X+4595375Y+200920D01*
X+4658875Y+200920D01*
X+4674750Y+216160D01*
X+4674750Y+231400D01*
X+4658875Y+246640D01*
X+4595375Y+246640D01*
X+4579500Y+261880D01*
X+4579500Y+277120D01*
X+4595375Y+292360D01*
X+4658875Y+292360D01*
X+4674750Y+277120D01*
X+4801750Y+200920D02*
X+4706500Y+200920D01*
X+4706500Y+292360D01*
X+4801750Y+292360D01*
X+4706500Y+246640D02*
X+4770000Y+246640D01*
X+4833500Y+200920D02*
X+4833500Y+292360D01*
X+4912875Y+292360D01*
X+4928750Y+277120D01*
X+4928750Y+261880D01*
X+4912875Y+246640D01*
X+4833500Y+246640D01*
X+4912875Y+246640D02*
X+4928750Y+231400D01*
X+4928750Y+200920D01*
X+4960500Y+292360D02*
X+4960500Y+246640D01*
X+5008125Y+200920D01*
X+5055750Y+246640D01*
X+5055750Y+292360D01*
X+5087500Y+261880D02*
X+5119250Y+292360D01*
X+5151000Y+292360D01*
X+5182750Y+261880D01*
X+5182750Y+231400D01*
X+5151000Y+200920D01*
X+5119250Y+200920D01*
X+5087500Y+231400D01*
X+5087500Y+261880D01*
X+5341500Y+200920D02*
X+5341500Y+292360D01*
X+5389125Y+246640D01*
X+5436750Y+292360D01*
X+5436750Y+200920D01*
X+5468500Y+261880D02*
X+5500250Y+292360D01*
X+5532000Y+292360D01*
X+5563750Y+261880D01*
X+5563750Y+231400D01*
X+5532000Y+200920D01*
X+5500250Y+200920D01*
X+5468500Y+231400D01*
X+5468500Y+261880D01*
X+5595500Y+292360D02*
X+5690750Y+292360D01*
X+5643125Y+292360D02*
X+5643125Y+200920D01*
X+5722500Y+261880D02*
X+5754250Y+292360D01*
X+5786000Y+292360D01*
X+5817750Y+261880D01*
X+5817750Y+231400D01*
X+5786000Y+200920D01*
X+5754250Y+200920D01*
X+5722500Y+231400D01*
X+5722500Y+261880D01*
X+5849500Y+200920D02*
X+5849500Y+292360D01*
X+5928875Y+292360D01*
X+5944750Y+277120D01*
X+5944750Y+261880D01*
X+5928875Y+246640D01*
X+5849500Y+246640D01*
X+5928875Y+246640D02*
X+5944750Y+231400D01*
X+5944750Y+200920D01*
X+3881000Y+206000D02*
X+4516000Y+206000D01*
X+4516000Y+968000D01*
X+3881000Y+968000D01*
X+3881000Y+206000D01*
X+4008000Y+206000D02*
X+4008000Y+968000D01*
X+3809880Y+460000D02*
X+3825120Y+460000D01*
X+3840360Y+475875D01*
X+3840360Y+539375D01*
X+3825120Y+555250D01*
X+3748920Y+555250D01*
X+3809880Y+682250D02*
X+3809880Y+587000D01*
X+3748920Y+650500D01*
X+3840360Y+650500D01*
X+2357000Y+1222000D02*
X+3373000Y+1222000D01*
X+3373000Y+1857000D01*
X+2357000Y+1857000D01*
X+2357000Y+1222000D01*
X+3373000Y+1349000D02*
X+2357000Y+1349000D01*
X+1976000Y+1181360D02*
X+1976000Y+1105160D01*
X+1991875Y+1089920D01*
X+2055375Y+1089920D01*
X+2071250Y+1105160D01*
X+2071250Y+1181360D01*
X+2103000Y+1089920D02*
X+2103000Y+1150880D01*
X+2134750Y+1181360D01*
X+2166500Y+1181360D01*
X+2198250Y+1150880D01*
X+2198250Y+1089920D01*
X+2103000Y+1120400D02*
X+2198250Y+1120400D01*
X+2230000Y+1089920D02*
X+2230000Y+1181360D01*
X+2309375Y+1181360D01*
X+2325250Y+1166120D01*
X+2325250Y+1150880D01*
X+2309375Y+1135640D01*
X+2230000Y+1135640D01*
X+2309375Y+1135640D02*
X+2325250Y+1120400D01*
X+2325250Y+1089920D01*
X+2357000Y+1181360D02*
X+2452250Y+1181360D01*
X+2404625Y+1181360D02*
X+2404625Y+1089920D01*
X+2579250Y+1181360D02*
X+2484000Y+1089920D01*
X+2611000Y+1181360D02*
X+2611000Y+1105160D01*
X+2626875Y+1089920D01*
X+2690375Y+1089920D01*
X+2706250Y+1105160D01*
X+2706250Y+1181360D01*
X+2738000Y+1105160D02*
X+2753875Y+1089920D01*
X+2817375Y+1089920D01*
X+2833250Y+1105160D01*
X+2833250Y+1120400D01*
X+2817375Y+1135640D01*
X+2753875Y+1135640D01*
X+2738000Y+1150880D01*
X+2738000Y+1166120D01*
X+2753875Y+1181360D01*
X+2817375Y+1181360D01*
X+2833250Y+1166120D01*
X+2865000Y+1089920D02*
X+2865000Y+1181360D01*
X+2944375Y+1181360D01*
X+2960250Y+1166120D01*
X+2960250Y+1150880D01*
X+2944375Y+1135640D01*
X+2960250Y+1120400D01*
X+2960250Y+1105160D01*
X+2944375Y+1089920D01*
X+2865000Y+1089920D01*
X+2865000Y+1135640D02*
X+2944375Y+1135640D01*
X+3214250Y+1105160D02*
X+3198375Y+1089920D01*
X+3150750Y+1089920D01*
X+3119000Y+1120400D01*
X+3119000Y+1150880D01*
X+3150750Y+1181360D01*
X+3198375Y+1181360D01*
X+3214250Y+1166120D01*
X+3246000Y+1089920D02*
X+3246000Y+1150880D01*
X+3277750Y+1181360D01*
X+3309500Y+1181360D01*
X+3341250Y+1150880D01*
X+3341250Y+1089920D01*
X+3246000Y+1120400D02*
X+3341250Y+1120400D01*
X+3373000Y+1089920D02*
X+3373000Y+1181360D01*
X+3452375Y+1181360D01*
X+3468250Y+1166120D01*
X+3468250Y+1150880D01*
X+3452375Y+1135640D01*
X+3468250Y+1120400D01*
X+3468250Y+1105160D01*
X+3452375Y+1089920D01*
X+3373000Y+1089920D01*
X+3373000Y+1135640D02*
X+3452375Y+1135640D01*
X+3500000Y+1181360D02*
X+3500000Y+1089920D01*
X+3595250Y+1089920D01*
X+3722250Y+1089920D02*
X+3627000Y+1089920D01*
X+3627000Y+1181360D01*
X+3722250Y+1181360D01*
X+3627000Y+1135640D02*
X+3690500Y+1135640D01*
X+3530480Y+2769050D02*
X+3530480Y+2850012D01*
X+3541101Y+2852094D01*
X+3549667Y+2857814D01*
X+3555386Y+2866379D01*
X+3557468Y+2877000D01*
X+3530480Y+2903988D02*
X+3541101Y+2901906D01*
X+3549667Y+2896186D01*
X+3555386Y+2887621D01*
X+3557468Y+2877000D01*
X+3530480Y+2903988D02*
X+3530480Y+2984950D01*
X+4485520Y+2845250D02*
X+4485520Y+2908750D01*
X+3563500Y+2769050D02*
X+4452500Y+2769050D01*
X+3563500Y+2984950D02*
X+4452500Y+2984950D01*
X+3563500Y+2769050D02*
X+3530480Y+2769050D01*
X+3530480Y+2984950D02*
X+3563500Y+2984950D01*
X+4485520Y+2908750D02*
X+4485520Y+2984950D01*
X+4452500Y+2984950D01*
X+4452500Y+2769050D02*
X+4485520Y+2769050D01*
X+4485520Y+2845250D01*
X+3589916Y+2804610D02*
X+3589881Y+2805455D01*
X+3589594Y+2807146D01*
X+3588995Y+2808837D01*
X+3588015Y+2810528D01*
X+3586515Y+2812196D01*
X+3584824Y+2813416D01*
X+3583133Y+2814192D01*
X+3581442Y+2814629D01*
X+3579756Y+2814770D01*
X+3569596Y+2804610D02*
X+3569631Y+2805455D01*
X+3569918Y+2807146D01*
X+3570517Y+2808837D01*
X+3571497Y+2810528D01*
X+3572997Y+2812196D01*
X+3574688Y+2813416D01*
X+3576379Y+2814192D01*
X+3578070Y+2814629D01*
X+3579756Y+2814770D01*
X+3569596Y+2804610D02*
X+3569631Y+2803765D01*
X+3569918Y+2802074D01*
X+3570517Y+2800383D01*
X+3571497Y+2798692D01*
X+3572997Y+2797024D01*
X+3574688Y+2795804D01*
X+3576379Y+2795028D01*
X+3578070Y+2794591D01*
X+3579756Y+2794450D01*
X+3589916Y+2804610D02*
X+3589881Y+2803765D01*
X+3589594Y+2802074D01*
X+3588995Y+2800383D01*
X+3588015Y+2798692D01*
X+3586515Y+2797024D01*
X+3584824Y+2795804D01*
X+3583133Y+2795028D01*
X+3581442Y+2794591D01*
X+3579756Y+2794450D01*
X+3212980Y+2750000D02*
X+3289180Y+2750000D01*
X+3304420Y+2765875D01*
X+3304420Y+2829375D01*
X+3289180Y+2845250D01*
X+3212980Y+2845250D01*
X+3228220Y+2892875D02*
X+3212980Y+2908750D01*
X+3212980Y+2956375D01*
X+3228220Y+2972250D01*
X+3243460Y+2972250D01*
X+3258700Y+2956375D01*
X+3258700Y+2908750D01*
X+3273940Y+2892875D01*
X+3304420Y+2892875D01*
X+3304420Y+2972250D01*
X+5532000Y+1222000D02*
X+5531573Y+1232409D01*
X+5528101Y+1253228D01*
X+5520845Y+1274047D01*
X+5509017Y+1294866D01*
X+5490920Y+1315524D01*
X+5470101Y+1331045D01*
X+5449282Y+1341030D01*
X+5428463Y+1346814D01*
X+5407644Y+1348972D01*
X+5405000Y+1349000D01*
X+5278000Y+1222000D02*
X+5278427Y+1232409D01*
X+5281899Y+1253228D01*
X+5289155Y+1274047D01*
X+5300983Y+1294866D01*
X+5319080Y+1315524D01*
X+5339899Y+1331045D01*
X+5360718Y+1341030D01*
X+5381537Y+1346814D01*
X+5402356Y+1348972D01*
X+5405000Y+1349000D01*
X+5278000Y+1222000D02*
X+5278427Y+1211591D01*
X+5281899Y+1190772D01*
X+5289155Y+1169953D01*
X+5300983Y+1149134D01*
X+5319080Y+1128476D01*
X+5339899Y+1112955D01*
X+5360718Y+1102970D01*
X+5381537Y+1097186D01*
X+5402356Y+1095028D01*
X+5405000Y+1095000D01*
X+5532000Y+1222000D02*
X+5531573Y+1211591D01*
X+5528101Y+1190772D01*
X+5520845Y+1169953D01*
X+5509017Y+1149134D01*
X+5490920Y+1128476D01*
X+5470101Y+1112955D01*
X+5449282Y+1102970D01*
X+5428463Y+1097186D01*
X+5407644Y+1095028D01*
X+5405000Y+1095000D01*
X+5468500Y+1222000D02*
X+5468283Y+1227247D01*
X+5466518Y+1237742D01*
X+5462826Y+1248237D01*
X+5456798Y+1258732D01*
X+5447576Y+1269112D01*
X+5437081Y+1276800D01*
X+5426586Y+1281718D01*
X+5416091Y+1284524D01*
X+5405596Y+1285497D01*
X+5405000Y+1285500D01*
X+5341500Y+1222000D02*
X+5341717Y+1227247D01*
X+5343482Y+1237742D01*
X+5347174Y+1248237D01*
X+5353202Y+1258732D01*
X+5362424Y+1269112D01*
X+5372919Y+1276800D01*
X+5383414Y+1281718D01*
X+5393909Y+1284524D01*
X+5404404Y+1285497D01*
X+5405000Y+1285500D01*
X+5341500Y+1222000D02*
X+5341717Y+1216753D01*
X+5343482Y+1206258D01*
X+5347174Y+1195763D01*
X+5353202Y+1185268D01*
X+5362424Y+1174888D01*
X+5372919Y+1167200D01*
X+5383414Y+1162282D01*
X+5393909Y+1159476D01*
X+5404404Y+1158503D01*
X+5405000Y+1158500D01*
X+5468500Y+1222000D02*
X+5468283Y+1216753D01*
X+5466518Y+1206258D01*
X+5462826Y+1195763D01*
X+5456798Y+1185268D01*
X+5447576Y+1174888D01*
X+5437081Y+1167200D01*
X+5426586Y+1162282D01*
X+5416091Y+1159476D01*
X+5405596Y+1158503D01*
X+5405000Y+1158500D01*
X+5633600Y+1095000D02*
X+5648840Y+1095000D01*
X+5664080Y+1110875D01*
X+5664080Y+1174375D01*
X+5648840Y+1190250D01*
X+5572640Y+1190250D01*
X+5572640Y+1317250D02*
X+5572640Y+1237875D01*
X+5603120Y+1237875D01*
X+5603120Y+1301375D01*
X+5618360Y+1317250D01*
X+5648840Y+1317250D01*
X+5664080Y+1301375D01*
X+5664080Y+1253750D01*
X+5648840Y+1237875D01*
X+1210000Y+4151000D02*
X+1845000Y+4151000D01*
X+1845000Y+4913000D01*
X+1210000Y+4913000D01*
X+1210000Y+4151000D01*
X+1718000Y+4913000D02*
X+1718000Y+4151000D01*
X+1946600Y+4405000D02*
X+1961840Y+4405000D01*
X+1977080Y+4420875D01*
X+1977080Y+4484375D01*
X+1961840Y+4500250D01*
X+1885640Y+4500250D01*
X+1900880Y+4547875D02*
X+1885640Y+4563750D01*
X+1885640Y+4611375D01*
X+1900880Y+4627250D01*
X+1916120Y+4627250D01*
X+1931360Y+4611375D01*
X+1931360Y+4563750D01*
X+1946600Y+4547875D01*
X+1977080Y+4547875D01*
X+1977080Y+4627250D01*
X+1321950Y+1125480D02*
X+1240988Y+1125480D01*
X+1238906Y+1136101D01*
X+1233186Y+1144667D01*
X+1224621Y+1150386D01*
X+1214000Y+1152468D01*
X+1187012Y+1125480D02*
X+1189094Y+1136101D01*
X+1194814Y+1144667D01*
X+1203379Y+1150386D01*
X+1214000Y+1152468D01*
X+1187012Y+1125480D02*
X+1106050Y+1125480D01*
X+1245750Y+1572520D02*
X+1182250Y+1572520D01*
X+1321950Y+1158500D02*
X+1321950Y+1539500D01*
X+1106050Y+1158500D02*
X+1106050Y+1539500D01*
X+1321950Y+1158500D02*
X+1321950Y+1125480D01*
X+1106050Y+1125480D02*
X+1106050Y+1158500D01*
X+1182250Y+1572520D02*
X+1106050Y+1572520D01*
X+1106050Y+1539500D01*
X+1321950Y+1539500D02*
X+1321950Y+1572520D01*
X+1245750Y+1572520D01*
X+1296550Y+1174756D02*
X+1296515Y+1175601D01*
X+1296228Y+1177292D01*
X+1295629Y+1178983D01*
X+1294649Y+1180674D01*
X+1293149Y+1182342D01*
X+1291458Y+1183562D01*
X+1289767Y+1184338D01*
X+1288076Y+1184775D01*
X+1286390Y+1184916D01*
X+1276230Y+1174756D02*
X+1276265Y+1175601D01*
X+1276552Y+1177292D01*
X+1277151Y+1178983D01*
X+1278131Y+1180674D01*
X+1279631Y+1182342D01*
X+1281322Y+1183562D01*
X+1283013Y+1184338D01*
X+1284704Y+1184775D01*
X+1286390Y+1184916D01*
X+1276230Y+1174756D02*
X+1276265Y+1173911D01*
X+1276552Y+1172220D01*
X+1277151Y+1170529D01*
X+1278131Y+1168838D01*
X+1279631Y+1167170D01*
X+1281322Y+1165950D01*
X+1283013Y+1165174D01*
X+1284704Y+1164737D01*
X+1286390Y+1164596D01*
X+1296550Y+1174756D02*
X+1296515Y+1173911D01*
X+1296228Y+1172220D01*
X+1295629Y+1170529D01*
X+1294649Y+1168838D01*
X+1293149Y+1167170D01*
X+1291458Y+1165950D01*
X+1289767Y+1165174D01*
X+1288076Y+1164737D01*
X+1286390Y+1164596D01*
X+1087000Y+899420D02*
X+1087000Y+823220D01*
X+1102875Y+807980D01*
X+1166375Y+807980D01*
X+1182250Y+823220D01*
X+1182250Y+899420D01*
X+1229875Y+884180D02*
X+1245750Y+899420D01*
X+1293375Y+899420D01*
X+1309250Y+884180D01*
X+1309250Y+868940D01*
X+1293375Y+853700D01*
X+1309250Y+838460D01*
X+1309250Y+823220D01*
X+1293375Y+807980D01*
X+1245750Y+807980D01*
X+1229875Y+823220D01*
X+1261625Y+853700D02*
X+1293375Y+853700D01*
X+5278000Y+3254000D02*
X+5532000Y+3254000D01*
X+5532000Y+4270000D01*
X+5278000Y+4270000D01*
X+5278000Y+3254000D01*
X+5633600Y+3635000D02*
X+5648840Y+3635000D01*
X+5664080Y+3650875D01*
X+5664080Y+3714375D01*
X+5648840Y+3730250D01*
X+5572640Y+3730250D01*
X+5587880Y+3857250D02*
X+5572640Y+3841375D01*
X+5572640Y+3793750D01*
X+5587880Y+3777875D01*
X+5648840Y+3777875D01*
X+5664080Y+3793750D01*
X+5664080Y+3841375D01*
X+5648840Y+3857250D01*
X+5633600Y+3857250D01*
X+5618360Y+3841375D01*
X+5618360Y+3777875D01*
M02*
