G04 PROTEUS GERBER X2 FILE*
%TF.GenerationSoftware,Labcenter,Proteus,8.12-SP2-Build31155*%
%TF.CreationDate,2024-12-02T21:26:45+00:00*%
%TF.FileFunction,Copper,L2,Bot*%
%TF.FilePolarity,Positive*%
%TF.Part,Single*%
%TF.SameCoordinates,{72233389-6efe-41d5-b27f-3128bedcde57}*%
%FSLAX45Y45*%
%MOMM*%
G01*
%TA.AperFunction,Conductor*%
%ADD10C,0.203200*%
%ADD11C,0.381000*%
%TA.AperFunction,ViaPad*%
%ADD12C,0.508000*%
%ADD13C,1.016000*%
%TA.AperFunction,ComponentPad*%
%ADD15C,1.524000*%
%TA.AperFunction,ComponentPad*%
%ADD17C,2.032000*%
%TA.AperFunction,WasherPad*%
%ADD18C,1.397000*%
%TA.AperFunction,ComponentPad*%
%ADD19R,2.032000X2.032000*%
%TA.AperFunction,SMDPad,CuDef*%
%ADD20R,3.606800X1.295400*%
%ADD21R,1.295400X3.606800*%
%ADD22R,0.558800X0.609600*%
%TA.AperFunction,Profile*%
%ADD71C,0.203200*%
%TD.AperFunction*%
D10*
X+5214500Y+3952500D02*
X+5214500Y+4460500D01*
X+5278000Y+4524000D01*
X+5405000Y+4524000D01*
X+5468500Y+4460500D01*
X+5468500Y+4397000D01*
X+5378000Y+4397000D01*
X+5532000Y+1031500D02*
X+5532000Y+714000D01*
X+5341500Y+2746000D02*
X+5405000Y+2746000D01*
X+5468500Y+2809500D01*
X+5468500Y+2873000D01*
X+5378000Y+2873000D01*
X+5532000Y+2873000D02*
X+5532000Y+2936500D01*
X+5468500Y+3000000D01*
X+4924000Y+3000000D01*
X+4924000Y+3127000D01*
X+5786000Y+3317500D02*
X+5786000Y+2555500D01*
X+5722500Y+2492000D01*
X+4579500Y+2492000D01*
X+4516000Y+2428500D01*
X+4516000Y+1349000D01*
D11*
X+3500000Y+1525000D02*
X+3500000Y+890000D01*
X+3563500Y+890000D02*
X+3500000Y+890000D01*
X+4770000Y+1349000D02*
X+4770000Y+1088330D01*
X+4522670Y+841000D01*
X+4706500Y+426000D02*
X+4623000Y+426000D01*
X+4522670Y+526330D01*
X+4522670Y+841000D01*
X+3500000Y+841000D02*
X+3500000Y+890000D01*
X+3500000Y+841000D02*
X+3500000Y+587000D01*
X+3881000Y+890000D02*
X+4379580Y+890000D01*
X+4389000Y+899420D01*
X+3881000Y+890000D02*
X+3563500Y+890000D01*
X+769500Y+3000000D02*
X+896500Y+2873000D01*
X+896500Y+968000D01*
X+974500Y+890000D01*
X+1468000Y+890000D01*
X+4770000Y+1349000D02*
X+4770000Y+1666500D01*
X+4833500Y+1730000D01*
X+5005000Y+1730000D01*
X+641000Y+3098000D02*
X+515500Y+3223500D01*
X+515500Y+3480500D01*
X+641000Y+3606000D01*
X+641000Y+3098000D02*
X+543000Y+3000000D01*
X+515500Y+3000000D01*
X+515500Y+2717000D01*
X+706000Y+2717000D01*
X+769500Y+2653500D01*
X+769500Y+269500D01*
X+833000Y+206000D01*
X+1658500Y+206000D01*
X+1849000Y+15500D01*
X+3754000Y+15500D01*
X+4008000Y+269500D01*
X+4198500Y+269500D01*
X+4224721Y+295721D01*
X+4750000Y+295721D01*
X+4750000Y+250000D01*
X+3500000Y+1525000D02*
X+3500001Y+1525001D01*
X+3754000Y+1525001D01*
X+3754000Y+1525000D01*
X+641000Y+3098000D02*
X+769500Y+3098000D01*
X+769500Y+3000000D01*
X+3500000Y+1525000D02*
X+3500000Y+1603000D01*
X+3754000Y+1857000D01*
X+4750000Y+250000D02*
X+5004000Y+250000D01*
X+5004000Y+362500D01*
X+4940500Y+426000D01*
X+4706500Y+426000D01*
X+4389000Y+899420D02*
X+4496000Y+899420D01*
X+4522670Y+872750D01*
X+4522670Y+841000D01*
X+3309500Y+2238000D02*
X+3309500Y+333000D01*
X+3246000Y+269500D01*
X+2928500Y+269500D01*
X+2484000Y+714000D01*
X+2166500Y+714000D01*
X+1785500Y+333000D01*
X+896500Y+333000D01*
X+833000Y+396500D01*
X+833000Y+2844000D01*
X+641000Y+2844000D01*
X+1785500Y+4270000D02*
X+1849000Y+4206500D01*
X+1849000Y+3381000D01*
X+1912500Y+3317500D01*
X+2801500Y+3317500D01*
X+2865000Y+3254000D01*
X+2865000Y+3000000D01*
X+1785500Y+4270000D02*
X+1785500Y+4333500D01*
X+1849000Y+4397000D01*
X+1849000Y+4983000D01*
X+1468000Y+4983000D01*
X+1785500Y+4270000D02*
X+1785500Y+4079500D01*
X+1722000Y+4016000D01*
X+1468000Y+4016000D01*
X+4262000Y+460000D02*
X+4109600Y+460000D01*
X+4109600Y+333000D01*
X+3436500Y+333000D01*
X+3373000Y+396500D01*
X+3373000Y+1920500D01*
X+3436500Y+1984000D01*
X+3436500Y+2365000D01*
X+3373000Y+2428500D01*
X+2928500Y+2428500D01*
X+2865000Y+2365000D01*
X+2865000Y+2111000D01*
X+5278000Y+714000D02*
X+5278000Y+904500D01*
X+5214500Y+968000D01*
X+5214500Y+1412500D01*
X+5327000Y+1525000D01*
X+5913000Y+1525000D01*
X+1722000Y+1412500D02*
X+1277500Y+1412500D01*
X+1214000Y+1476000D01*
X+1214000Y+4409000D01*
X+1464000Y+4659000D01*
X+2103000Y+1525000D02*
X+2357000Y+1525000D01*
X+2430130Y+1451870D01*
X+2611000Y+1451870D01*
X+2674500Y+1388370D01*
X+2674500Y+1031500D01*
X+2738000Y+968000D01*
X+2865000Y+968000D01*
X+2865000Y+1222000D01*
X+2103000Y+1525000D02*
X+1849000Y+1525000D01*
X+1849000Y+1412500D01*
X+1722000Y+1412500D01*
X+1722000Y+1857000D01*
D10*
X+5405000Y+3381000D02*
X+5405000Y+3190500D01*
X+5341500Y+3127000D01*
X+5024000Y+3127000D01*
X+1658500Y+2809500D02*
X+1658500Y+3000000D01*
X+1468000Y+3000000D01*
X+2230000Y+2111000D02*
X+2230000Y+2492000D01*
X+1722000Y+3000000D01*
X+1722000Y+3190500D01*
X+1658500Y+3254000D01*
X+1468000Y+3254000D01*
X+1912500Y+2111000D02*
X+1613415Y+2111000D01*
X+1613415Y+1875415D01*
X+1468000Y+1730000D01*
X+2166500Y+2238000D02*
X+1468000Y+2238000D01*
D11*
X+3055500Y+904500D02*
X+2435000Y+904500D01*
X+1849000Y+904500D02*
X+2435000Y+904500D01*
X+2293500Y+1857000D02*
X+2435000Y+1857000D01*
X+2435000Y+2111000D01*
X+2293500Y+2111000D02*
X+2293500Y+1857000D01*
X+2435000Y+3000000D02*
X+2435000Y+3254000D01*
X+2039500Y+3254000D01*
X+1912500Y+3127000D01*
X+1468000Y+3762000D02*
X+1277500Y+3762000D01*
X+1277500Y+4218500D01*
X+1464000Y+4405000D01*
X+2435000Y+3000000D02*
X+2435000Y+2555500D01*
X+2293500Y+2111000D02*
X+2293500Y+2414000D01*
X+2435000Y+2555500D01*
X+2293500Y+1857000D02*
X+2152000Y+1857000D01*
X+3182500Y+2555500D02*
X+3119000Y+2492000D01*
X+2484000Y+2492000D01*
X+2435000Y+2492000D01*
X+2435000Y+2555500D01*
X+4262000Y+1857000D02*
X+4262000Y+1666500D01*
X+4198500Y+1603000D01*
X+4071500Y+1603000D01*
X+4008000Y+1539500D01*
X+4008000Y+1095000D01*
X+3754000Y+1095000D01*
X+3182500Y+3127000D02*
X+4706500Y+3127000D01*
X+452000Y+4079500D02*
X+452000Y+5476500D01*
X+515500Y+5540000D01*
X+1658500Y+5540000D01*
X+1722000Y+5476500D01*
X+1722000Y+5413000D01*
X+1468000Y+5413000D01*
X+641000Y+2590000D02*
X+515500Y+2590000D01*
X+452000Y+2653500D01*
X+452000Y+4079500D01*
X+3182500Y+2555500D02*
X+3182500Y+2746000D01*
X+5405000Y+1222000D02*
X+5595500Y+1222000D01*
X+5595500Y+1158500D01*
X+5659000Y+1095000D01*
X+5913000Y+1095000D01*
X+6356000Y+3864000D02*
X+6040000Y+3548000D01*
X+6040000Y+1965000D01*
X+5805000Y+1730000D01*
X+6356000Y+3864000D02*
X+6548000Y+3672000D01*
X+6548000Y+2619000D01*
X+5605000Y+1730000D02*
X+5478000Y+1603000D01*
X+5087500Y+1603000D01*
X+5024000Y+1539500D01*
X+5024000Y+1349000D01*
X+6548000Y+2619000D02*
X+6484500Y+2555500D01*
X+6484500Y+2428500D01*
X+6548000Y+2365000D01*
X+6548000Y+1259000D01*
X+6737000Y+1070000D01*
X+1849000Y+904500D02*
X+1722000Y+777500D01*
X+1722000Y+460000D01*
X+1468000Y+460000D01*
X+4262000Y+714000D02*
X+3690500Y+714000D01*
X+3627000Y+650500D01*
X+3627000Y+460000D01*
X+3881000Y+460000D01*
X+1849000Y+904500D02*
X+1785500Y+904500D01*
X+1658500Y+1031500D01*
X+1150500Y+1031500D01*
X+6548000Y+2619000D02*
X+6573000Y+2594000D01*
X+6737000Y+2594000D01*
X+3055500Y+904500D02*
X+3119000Y+904500D01*
X+3119000Y+890000D01*
X+3070000Y+841000D01*
X+3070000Y+587000D01*
X+641000Y+4114000D02*
X+486500Y+4114000D01*
X+452000Y+4079500D01*
X+3055500Y+904500D02*
X+3119000Y+968000D01*
X+3119000Y+1603000D01*
X+2435000Y+904500D02*
X+2435000Y+1222000D01*
X+3182500Y+3127000D02*
X+3182500Y+2746000D01*
X+5024000Y+1349000D02*
X+5024000Y+714000D01*
X+4262000Y+1857000D02*
X+3563500Y+2555500D01*
X+3182500Y+2555500D01*
X+1849000Y+1095000D02*
X+2103000Y+1095000D01*
X+641000Y+2590000D02*
X+641000Y+2336000D01*
X+5605000Y+1730000D02*
X+5805000Y+1730000D01*
X+641000Y+2336000D02*
X+452000Y+2147000D01*
X+452000Y+460000D01*
X+1849000Y+904500D02*
X+1849000Y+1095000D01*
X+1468000Y+3762000D02*
X+1722000Y+3762000D01*
X+1785500Y+3698500D01*
X+1785500Y+3254000D01*
X+1912500Y+3127000D01*
X+5024000Y+714000D02*
X+4871600Y+714000D01*
X+4871600Y+680000D01*
X+4750000Y+680000D01*
D10*
X+5405000Y+4143000D02*
X+5405000Y+4333500D01*
X+5278000Y+4333500D01*
X+5278000Y+4397000D01*
X+2039500Y+460000D02*
X+2357000Y+460000D01*
X+5913000Y+2619000D02*
X+5913000Y+4714500D01*
X+5976500Y+4778000D01*
X+6548000Y+4778000D01*
X+6611500Y+4714500D01*
X+6611500Y+3481500D01*
X+6737000Y+3356000D01*
X+6167000Y+269500D02*
X+6167000Y+1857000D01*
X+6103500Y+1920500D01*
X+6103500Y+3103500D01*
X+6356000Y+3356000D01*
X+6167000Y+2428500D02*
X+6167000Y+2275000D01*
X+6356000Y+2086000D01*
X+2547500Y+3127000D02*
X+2547500Y+2746000D01*
X+2611000Y+2682500D01*
X+2992000Y+2682500D01*
X+3055500Y+2746000D01*
X+3055500Y+3317500D01*
X+3119000Y+3381000D01*
X+5024000Y+3381000D01*
X+5087500Y+3444500D01*
X+5087500Y+5349500D01*
X+5151000Y+5413000D01*
X+6802000Y+5413000D01*
X+6865500Y+5349500D01*
X+6865500Y+206000D01*
X+6802000Y+142500D01*
X+6548000Y+142500D01*
X+6484500Y+206000D01*
X+6484500Y+1195500D01*
X+6356000Y+1324000D01*
X+5659000Y+2873000D02*
X+5659000Y+2746000D01*
X+5595500Y+2682500D01*
X+3944500Y+2682500D01*
X+3754000Y+2873000D01*
X+6167000Y+2873000D02*
X+6192000Y+2848000D01*
X+6356000Y+2848000D01*
X+6167000Y+4270000D02*
X+6167000Y+4437000D01*
X+6356000Y+4626000D01*
X+1785500Y+4905000D02*
X+1756500Y+4876000D01*
X+641000Y+4876000D01*
X+2611000Y+2936500D02*
X+2801500Y+2746000D01*
X+2928500Y+2746000D01*
X+2992000Y+2809500D01*
X+2992000Y+3317500D01*
X+2928500Y+3381000D01*
X+1976000Y+3381000D01*
X+1912500Y+3444500D01*
X+1912500Y+5603500D01*
X+1849000Y+5667000D01*
X+452000Y+5667000D01*
X+388500Y+5603500D01*
X+388500Y+2210500D01*
X+260000Y+2082000D01*
X+2420500Y+1603000D02*
X+2611000Y+1603000D01*
X+6167000Y+2682500D02*
X+6167000Y+2594000D01*
X+6356000Y+2594000D01*
X+5976500Y+4651000D02*
X+5976500Y+2365000D01*
X+5913000Y+2301500D01*
X+5468500Y+2301500D01*
X+5405000Y+2238000D01*
X+5405000Y+1730000D01*
X+5405000Y+3889000D02*
X+5214500Y+3698500D01*
X+5214500Y+3317500D01*
X+5151000Y+3254000D01*
X+4897000Y+3254000D01*
X+4833500Y+3190500D01*
X+4833500Y+2936500D01*
X+4897000Y+2873000D01*
X+5278000Y+2873000D01*
X+2865000Y+1857000D02*
X+2865000Y+1603000D01*
X+5205000Y+1730000D02*
X+5205000Y+2108709D01*
X+5545032Y+2448741D01*
X+5738106Y+2448741D01*
X+5858241Y+2568876D01*
X+5858241Y+4718436D01*
X+6087267Y+4947462D01*
X+6669538Y+4947462D01*
X+6737000Y+4880000D01*
D12*
X+5214500Y+3952500D03*
X+5532000Y+1031500D03*
X+5341500Y+2746000D03*
X+5532000Y+2873000D03*
X+5786000Y+3317500D03*
D13*
X+3309500Y+2238000D03*
X+1722000Y+1412500D03*
D12*
X+1658500Y+2809500D03*
X+2230000Y+2111000D03*
X+1912500Y+2111000D03*
X+2166500Y+2238000D03*
D13*
X+4706500Y+3127000D03*
X+3182500Y+2746000D03*
X+452000Y+460000D03*
X+1150500Y+1031500D03*
X+3182500Y+3127000D03*
X+1912500Y+3127000D03*
D12*
X+2039500Y+460000D03*
X+5913000Y+2619000D03*
X+6167000Y+269500D03*
X+6167000Y+2428500D03*
X+2547500Y+3127000D03*
X+3754000Y+2873000D03*
X+5659000Y+2873000D03*
X+6167000Y+2873000D03*
X+6167000Y+4270000D03*
X+1785500Y+4905000D03*
X+2611000Y+2936500D03*
X+2420500Y+1603000D03*
X+6167000Y+2682500D03*
X+5976500Y+4651000D03*
X+2865000Y+1857000D03*
D15*
X+641000Y+4876000D03*
X+260000Y+4622000D03*
X+641000Y+4622000D03*
X+260000Y+4368000D03*
X+641000Y+4368000D03*
X+260000Y+4114000D03*
X+641000Y+4114000D03*
X+260000Y+3860000D03*
X+641000Y+3860000D03*
X+260000Y+3606000D03*
X+641000Y+3606000D03*
X+260000Y+3352000D03*
X+641000Y+3352000D03*
X+260000Y+3098000D03*
X+641000Y+3098000D03*
X+260000Y+2844000D03*
X+641000Y+2844000D03*
X+260000Y+2590000D03*
X+641000Y+2590000D03*
X+260000Y+2336000D03*
X+641000Y+2336000D03*
X+260000Y+2082000D03*
X+641000Y+2082000D03*
X+260000Y+1828000D03*
X+641000Y+1828000D03*
X+260000Y+1574000D03*
X+641000Y+1574000D03*
X+260000Y+1320000D03*
X+641000Y+1320000D03*
X+260000Y+1066000D03*
X+641000Y+1066000D03*
X+260000Y+812000D03*
X+641000Y+812000D03*
X+260000Y+558000D03*
X+641000Y+558000D03*
X+260000Y+304000D03*
X+641000Y+304000D03*
X+6737000Y+4880000D03*
X+6356000Y+4626000D03*
X+6737000Y+4626000D03*
X+6356000Y+4372000D03*
X+6737000Y+4372000D03*
X+6356000Y+4118000D03*
X+6737000Y+4118000D03*
X+6356000Y+3864000D03*
X+6737000Y+3864000D03*
X+6356000Y+3610000D03*
X+6737000Y+3610000D03*
X+6356000Y+3356000D03*
X+6737000Y+3356000D03*
X+6356000Y+3102000D03*
X+6737000Y+3102000D03*
X+6356000Y+2848000D03*
X+6737000Y+2848000D03*
X+6356000Y+2594000D03*
X+6737000Y+2594000D03*
X+6356000Y+2340000D03*
X+6737000Y+2340000D03*
X+6356000Y+2086000D03*
X+6737000Y+2086000D03*
X+6356000Y+1832000D03*
X+6737000Y+1832000D03*
X+6356000Y+1578000D03*
X+6737000Y+1578000D03*
X+6356000Y+1324000D03*
X+6737000Y+1324000D03*
X+6356000Y+1070000D03*
X+6737000Y+1070000D03*
X+6356000Y+816000D03*
X+6737000Y+816000D03*
X+6356000Y+562000D03*
X+6737000Y+562000D03*
X+6356000Y+308000D03*
X+6737000Y+308000D03*
D17*
X+3754000Y+1857000D03*
X+4008000Y+1857000D03*
X+4262000Y+1857000D03*
X+2357000Y+460000D03*
X+2357000Y+206000D03*
D18*
X+5005000Y+1730000D03*
X+5205000Y+1730000D03*
X+5405000Y+1730000D03*
X+5605000Y+1730000D03*
X+5805000Y+1730000D03*
D19*
X+5024000Y+1349000D03*
X+4770000Y+1349000D03*
X+4516000Y+1349000D03*
X+4262000Y+1349000D03*
X+1468000Y+4016000D03*
X+1468000Y+3762000D03*
X+1468000Y+3508000D03*
X+1468000Y+3254000D03*
X+1468000Y+3000000D03*
X+1468000Y+2746000D03*
X+1468000Y+2492000D03*
X+1468000Y+2238000D03*
X+1468000Y+1984000D03*
X+1468000Y+1730000D03*
D17*
X+5532000Y+714000D03*
X+5278000Y+714000D03*
X+5024000Y+714000D03*
X+4262000Y+460000D03*
X+4262000Y+714000D03*
X+3119000Y+1603000D03*
X+2865000Y+1603000D03*
X+2611000Y+1603000D03*
X+5405000Y+1222000D03*
X+1464000Y+4659000D03*
X+1464000Y+4405000D03*
D19*
X+5405000Y+4143000D03*
X+5405000Y+3889000D03*
X+5405000Y+3635000D03*
X+5405000Y+3381000D03*
D20*
X+3754000Y+1095000D03*
X+3754000Y+1525000D03*
X+3881000Y+460000D03*
X+3881000Y+890000D03*
X+1468000Y+5413000D03*
X+1468000Y+4983000D03*
D21*
X+2435000Y+3000000D03*
X+2865000Y+3000000D03*
X+2435000Y+1222000D03*
X+2865000Y+1222000D03*
X+3070000Y+587000D03*
X+3500000Y+587000D03*
D20*
X+4750000Y+680000D03*
X+4750000Y+250000D03*
X+5913000Y+1095000D03*
X+5913000Y+1525000D03*
D21*
X+2435000Y+2111000D03*
X+2865000Y+2111000D03*
D20*
X+1468000Y+460000D03*
X+1468000Y+890000D03*
X+2103000Y+1095000D03*
X+2103000Y+1525000D03*
D21*
X+2152000Y+1857000D03*
X+1722000Y+1857000D03*
D22*
X+5378000Y+4397000D03*
X+5278000Y+4397000D03*
X+5378000Y+2873000D03*
X+5278000Y+2873000D03*
X+4924000Y+3127000D03*
X+5024000Y+3127000D03*
D71*
X+0Y+0D02*
X+1650000Y+0D01*
X+7000000Y+0D02*
X+7000000Y+6000000D01*
X+5000000Y+6000000D01*
X+5000000Y+3700000D01*
X+4800000Y+3500000D01*
X+2200000Y+3500000D01*
X+2000000Y+3700000D02*
X+2000000Y+6000000D01*
X+0Y+6000000D01*
X+0Y+0D01*
X+2000000Y+3700000D02*
X+2200000Y+3500000D01*
X+5160000Y+0D02*
X+7000000Y+0D01*
X+1750000Y-200000D02*
X+5050000Y-200000D01*
X+1650000Y+0D02*
X+1750000Y-200000D01*
X+5160000Y+0D02*
X+5050000Y-200000D01*
X+4550045Y+50000D02*
X+4549508Y+63142D01*
X+4545144Y+89427D01*
X+4536029Y+115712D01*
X+4521182Y+141997D01*
X+4498470Y+168118D01*
X+4472185Y+187898D01*
X+4445900Y+200658D01*
X+4419615Y+208108D01*
X+4393330Y+210987D01*
X+4389000Y+211045D01*
X+4227955Y+50000D02*
X+4228492Y+63142D01*
X+4232856Y+89427D01*
X+4241971Y+115712D01*
X+4256818Y+141997D01*
X+4279530Y+168118D01*
X+4305815Y+187898D01*
X+4332100Y+200658D01*
X+4358385Y+208108D01*
X+4384670Y+210987D01*
X+4389000Y+211045D01*
X+4227955Y+50000D02*
X+4228492Y+36858D01*
X+4232856Y+10573D01*
X+4241971Y-15712D01*
X+4256818Y-41997D01*
X+4279530Y-68118D01*
X+4305815Y-87898D01*
X+4332100Y-100658D01*
X+4358385Y-108108D01*
X+4384670Y-110987D01*
X+4389000Y-111045D01*
X+4550045Y+50000D02*
X+4549508Y+36858D01*
X+4545144Y+10573D01*
X+4536029Y-15712D01*
X+4521182Y-41997D01*
X+4498470Y-68118D01*
X+4472185Y-87898D01*
X+4445900Y-100658D01*
X+4419615Y-108108D01*
X+4393330Y-110987D01*
X+4389000Y-111045D01*
X+6074045Y+5130000D02*
X+6073508Y+5143142D01*
X+6069144Y+5169427D01*
X+6060029Y+5195712D01*
X+6045182Y+5221997D01*
X+6022470Y+5248118D01*
X+5996185Y+5267898D01*
X+5969900Y+5280658D01*
X+5943615Y+5288108D01*
X+5917330Y+5290987D01*
X+5913000Y+5291045D01*
X+5751955Y+5130000D02*
X+5752492Y+5143142D01*
X+5756856Y+5169427D01*
X+5765971Y+5195712D01*
X+5780818Y+5221997D01*
X+5803530Y+5248118D01*
X+5829815Y+5267898D01*
X+5856100Y+5280658D01*
X+5882385Y+5288108D01*
X+5908670Y+5290987D01*
X+5913000Y+5291045D01*
X+5751955Y+5130000D02*
X+5752492Y+5116858D01*
X+5756856Y+5090573D01*
X+5765971Y+5064288D01*
X+5780818Y+5038003D01*
X+5803530Y+5011882D01*
X+5829815Y+4992102D01*
X+5856100Y+4979342D01*
X+5882385Y+4971892D01*
X+5908670Y+4969013D01*
X+5913000Y+4968955D01*
X+6074045Y+5130000D02*
X+6073508Y+5116858D01*
X+6069144Y+5090573D01*
X+6060029Y+5064288D01*
X+6045182Y+5038003D01*
X+6022470Y+5011882D01*
X+5996185Y+4992102D01*
X+5969900Y+4979342D01*
X+5943615Y+4971892D01*
X+5917330Y+4969013D01*
X+5913000Y+4968955D01*
X+1248045Y+5257000D02*
X+1247508Y+5270142D01*
X+1243144Y+5296427D01*
X+1234029Y+5322712D01*
X+1219182Y+5348997D01*
X+1196470Y+5375118D01*
X+1170185Y+5394898D01*
X+1143900Y+5407658D01*
X+1117615Y+5415108D01*
X+1091330Y+5417987D01*
X+1087000Y+5418045D01*
X+925955Y+5257000D02*
X+926492Y+5270142D01*
X+930856Y+5296427D01*
X+939971Y+5322712D01*
X+954818Y+5348997D01*
X+977530Y+5375118D01*
X+1003815Y+5394898D01*
X+1030100Y+5407658D01*
X+1056385Y+5415108D01*
X+1082670Y+5417987D01*
X+1087000Y+5418045D01*
X+925955Y+5257000D02*
X+926492Y+5243858D01*
X+930856Y+5217573D01*
X+939971Y+5191288D01*
X+954818Y+5165003D01*
X+977530Y+5138882D01*
X+1003815Y+5119102D01*
X+1030100Y+5106342D01*
X+1056385Y+5098892D01*
X+1082670Y+5096013D01*
X+1087000Y+5095955D01*
X+1248045Y+5257000D02*
X+1247508Y+5243858D01*
X+1243144Y+5217573D01*
X+1234029Y+5191288D01*
X+1219182Y+5165003D01*
X+1196470Y+5138882D01*
X+1170185Y+5119102D01*
X+1143900Y+5106342D01*
X+1117615Y+5098892D01*
X+1091330Y+5096013D01*
X+1087000Y+5095955D01*
M02*
